<svg xmlns="http://www.w3.org/2000/svg" width="128" height="128" viewBox="0 0 128 128">
  <defs>
    <linearGradient id="bg" x1="0%" y1="0%" x2="100%" y2="100%">
      <stop offset="0%" style="stop-color:#8b5cf6;stop-opacity:1" />
      <stop offset="100%" style="stop-color:#6366f1;stop-opacity:1" />
    </linearGradient>
  </defs>
  <rect width="128" height="128" rx="24" fill="url(#bg)"/>
  <g fill="white">
    <path d="M40 32h28l16 16h24a4 4 0 0 1 4 4v40a4 4 0 0 1-4 4H40a4 4 0 0 1-4-4V36a4 4 0 0 1 4-4zm0 8v48h68V56H80V40H40z"/>
    <circle cx="64" cy="68" r="10" fill="none" stroke="white" stroke-width="4"/>
    <line x1="71" y1="75" x2="82" y2="86" stroke="white" stroke-width="5" stroke-linecap="round"/>
  </g>
</svg>
